<?xml version="1.0" encoding="utf-8"?>
<!-- Generator: Adobe Illustrator 23.0.6, SVG Export Plug-In . SVG Version: 6.00 Build 0)  -->
<svg version="1.1" id="Layer_1" xmlns="http://www.w3.org/2000/svg" xmlns:xlink="http://www.w3.org/1999/xlink" x="0px" y="0px"
	 viewBox="0 0 71 70" style="enable-background:new 0 0 71 70;" xml:space="preserve">
<style type="text/css">
	.st0{fill-rule:evenodd;clip-rule:evenodd;fill:#161A1D;}
</style>
<path class="st0" d="M13.3,52.4c-0.8-0.2-0.9-0.3-1.5-0.7c0-0.1,0-0.3,0-0.4c-0.4-0.1-0.7-0.3-1.1-0.4c-0.1-0.3-0.3-0.5-0.4-0.7
	c-0.3,0-0.5,0-0.7,0c-1.2-1.3-2.5-2.7-3.7-4.1c0-0.3,0-0.5,0-0.7c-0.3-0.1-0.5-0.3-0.7-0.4c0-0.3,0-0.5,0-0.7
	c-0.3-0.1-0.5-0.3-0.7-0.4c0-0.3,0-0.5,0-0.7c-0.1,0-0.3,0-0.4,0c0-0.3,0-0.5,0-0.7c-0.1,0-0.3,0-0.4,0c-0.1-0.9-0.3-1.7-0.4-2.6
	c-0.5-1.4-1.4-4.7-0.7-7c0.1,0,0.3,0,0.4,0c0-0.5,0-1,0-1.5c0.1,0,0.3,0,0.4,0c0.1-0.5,0.3-1,0.4-1.5c0.1,0,0.3,0,0.4,0
	c0-0.6,0-1.2,0-1.9c0,0,0.2,0,0.4-0.7c0.4,0,0.7,0,1.1,0C5.6,25.8,6.2,25,6.6,24c0.1,0,0.3,0,0.4,0c0,0.1,0,0.3,0,0.4
	c0.4-0.1,0.7-0.3,1.1-0.4c0.1-0.6,0.3-1.2,0.4-1.9c0.6-0.2,0.9-0.3,1.9-0.4c0.2-0.9,0.5-2.2,1.1-2.6c0.7-0.4,1.4,0.2,1.9-0.4
	c0-0.3,0-0.5,0-0.7c0.1,0,0.3,0,0.4,0c0-0.3,0-0.5,0-0.7c0.1,0,0.3,0,0.4,0c0.1-0.3,0.3-0.5,0.4-0.7c0.6,0,1.2,0,1.9,0
	c0.1-0.4,0.3-0.7,0.4-1.1c0.1,0,0.3,0,0.4,0c0.3-0.4,0.5-0.7,0.7-1.1c1.1-0.7,1.7,0.2,2.2,0c0.6-0.7,1.2-1.5,1.9-2.2
	c0.8-0.4,1.6,0.5,1.9,0.4c0-0.1,0-0.3,0-0.4c0.9-0.7,1.7-1.5,2.6-2.2c0.9,0.2,0.8,0.4,1.5,0.7c0-0.1,0-0.3,0-0.4
	c0.5-0.4,1-0.7,1.5-1.1c0-0.1,0-0.3,0-0.4c1-0.5,1,0.7,2.2,0c0.1-0.3,0.3-0.5,0.4-0.7c0.3,0,0.5,0,0.7,0C32.8,7.7,33,7.3,33.3,7
	c0.5-0.1,1-0.3,1.5-0.4c0.1-0.3,0.3-0.5,0.4-0.7c0.4,0,0.7,0,1.1,0c0.1-0.3,0.3-0.5,0.4-0.7c0.3,0,0.5,0,0.7,0c0-0.1,0-0.3,0-0.4
	c0.3,0,0.5,0,0.7,0c0-0.1,0-0.3,0-0.4c0.3,0,0.5,0,0.7,0c0-0.1,0-0.3,0-0.4c0.3,0,0.5,0,0.7,0c0.3-0.4,0.5-0.7,0.7-1.1
	c0.3,0,0.5,0,0.7,0c0.1-0.3,0.3-0.5,0.4-0.7c0.9-0.7,1.7-1.5,2.6-2.2c0,0.6,0,1.2,0,1.9c-0.7,0.8-0.4,4.9,0,5.9c0.1,0,0.3,0,0.4,0
	c0,0.3,0,0.5,0,0.7c0.1,0,0.3,0,0.4,0c0,1,0,2,0,2.9c0.1,0,0.3,0,0.4,0c0,0.6,0,1.2,0,1.9c0.3,0.1,0.5,0.3,0.7,0.4
	c0.3,0.8-0.3,1.1-0.4,1.5c0.3,0.1,0.5,0.3,0.7,0.4c0,0.6,0,1.2,0,1.8c0.1,0,0.3,0,0.4,0c0.1,0.6,0.3,1.2,0.4,1.9c0.1,0,0.3,0,0.4,0
	c0.3,0.5,0.5,1,0.4,1.9c-0.1,0-0.3,0-0.4,0c-0.1,0.5,0.3-0.1,0.4,0.4c0.2,1-0.3,1.3-0.4,1.9c0.3,0.1,0.5,0.3,0.7,0.4
	c0,0.1,0,0.3,0,0.4c-0.1,0-0.3,0-0.4,0C47.4,25,48,25.9,48,26.2c-0.1,0-0.3,0-0.4,0c0.1,1,0.3,2,0.4,3c-0.3,0.1-0.5,0.3-0.7,0.4
	c-0.2,0.5,0.2-0.1,0.4,0.4c-0.1,1.4-0.3,2.7-0.4,4.1c-0.3,0.1-0.5,0.3-0.7,0.4c-0.2,0.7,1,0.5,0.7,1.5c-0.1,0-0.3,0-0.4,0
	c-0.1,0.4-0.3,0.7-0.4,1.1c-0.1,0-0.3,0-0.4,0c0,0.7,0,1.5,0,2.2c-0.5,2.1-1,4.2-1.5,6.3c-0.1,0-0.3,0-0.4,0c0,0.3,0,0.5,0,0.7
	c-0.3,0.1-0.5,0.3-0.7,0.4c-0.3,0.7-0.5,1.5-0.7,2.2c-0.3,0.1-0.5,0.3-0.7,0.4c0,0.3,0,0.5,0,0.7c-0.5,0.4-1,0.7-1.5,1.1
	c-0.7,0.9-1.5,1.7-2.2,2.6c-0.3,0-0.5,0-0.7,0c-0.3,0.4-0.5,0.7-0.7,1.1c-0.5,0.1-1,0.3-1.5,0.4c0,0.1,0,0.3,0,0.4
	c-0.3,0-0.5,0-0.7,0c0,0.1,0,0.3,0,0.4c-0.7,0.3-1.5,0.5-2.2,0.7c0,0.1,0,0.3,0,0.4c-0.4,0-0.7,0-1.1,0c0,0.1,0,0.3,0,0.4
	c-0.4,0-0.7,0-1.1,0c0,0.1,0,0.3,0,0.4c-1,0-2,0-3,0c0,0.1,0,0.3,0,0.4c-1.5-0.1-3-0.3-4.4-0.4c0-0.1,0-0.3,0-0.4
	c-0.4,0-0.7,0-1.1,0c0-0.1,0-0.3,0-0.4c-1.9-0.6-3.5,0.5-4.8,0.7c-1.5,3.4-4.5,5.6-7,8.1c-1.6,1.6-2.7,3.4-5.5,3.7
	c-0.5-1-0.7-0.6-0.7-2.2c0.5-0.3,1-0.5,1.5-0.7c0.1-0.3,0.3-0.5,0.4-0.7c0.5-0.1,1-0.3,1.5-0.4c0.3-0.4,0.5-0.7,0.7-1.1
	c0.3,0,0.5,0,0.7,0c0.3-0.4,0.5-0.7,0.7-1.1c1-0.9,2-1.7,2.9-2.6c0-0.3,0-0.5,0-0.7c0.3-0.1,0.5-0.3,0.7-0.4
	c0.3-0.4,0.5-0.7,0.7-1.1c0.1,0,0.3,0,0.4,0c0-0.3,0-0.5,0-0.7c0.4-0.3,0.7-0.5,1.1-0.7c0-0.5,0-1,0-1.5c-0.8-0.6-0.3-0.8-0.7-1.5
	c-0.1,0-0.3,0-0.4,0C13.6,53.4,13.5,53.3,13.3,52.4z"/>
</svg>
